#!OML:ASF F:\VICON\USERDATA\INSTALL\rory3\rory3.ASF
:FULLY-SPECIFIED
:DEGREES
963
root -8.41142 17.7358 9.07965 361.712 83.2483 -366.777
lowerback 3.28385 3.92284 1.44124
upperback 1.23392 5.29749 1.13549
thorax -0.546027 2.65521 0.165343
lowerneck -18.2681 6.92571 -5.28478
upperneck 36.7535 16.737 -5.39522
head 16.5098 5.96881 1.90664
rclavicle 2.42517e-014 2.94201e-014
rhumerus -34.6218 -7.39963 -69.0137
rradius 36.7769
rwrist 14.2954
rhand -23.9469 0.983739
rfingers 7.12502
rthumb 2.52867 -28.981
lclavicle 2.42517e-014 2.94201e-014
lhumerus -31.7333 10.0953 79.6207
lradius 39.1376
lwrist -2.71581
lhand -17.0192 28.114
lfingers 7.12502
lthumb 9.21682 57.8925
rfemur -11.932 -3.23482 23.1128
rtibia 28.2003
rfoot -26.2152 -9.08396
rtoes 13.8738
lfemur -29.8176 -9.86299 -15.4504
ltibia 30.3113
lfoot -11.7278 -14.6511
ltoes -14.5147
964
root -8.41106 17.7363 9.07986 362.259 83.921 -366.294
lowerback 3.16642 4.00301 1.22833
upperback 1.21408 5.39511 1.13197
thorax -0.51954 2.7035 0.283426
lowerneck -18.2957 6.82655 -5.03066
upperneck 36.7191 16.5966 -5.60454
head 16.5541 5.91964 1.75848
rclavicle 2.89232e-014 2.38542e-015
rhumerus -34.6091 -7.54489 -68.8296
rradius 36.9541
rwrist 14.2912
rhand -24.204 0.951767
rfingers 7.12502
rthumb 2.28037 -29.0158
lclavicle 2.89232e-014 2.38542e-015
lhumerus -31.9004 10.9907 79.1186
lradius 38.2154
lwrist -2.78281
lhand -17.1785 28.3875
lfingers 7.12502
lthumb 9.06312 58.1728
rfemur -11.9288 -3.47701 23.0746
rtibia 28.1343
rfoot -26.4897 -9.34329
rtoes 14.5246
lfemur -29.8268 -9.25194 -15.7212
ltibia 30.5896
lfoot -12.0338 -12.6149
ltoes -14.8289
965
root -8.40845 17.7369 9.07561 363.652 84.5509 -365.03
lowerback 2.94929 4.0704 1.08682
upperback 1.19127 5.47483 1.03421
thorax -0.425298 2.74297 0.275254
lowerneck -18.2359 6.78084 -4.81525
upperneck 36.5676 16.4725 -5.74196
head 16.4988 5.89335 1.63811
rclavicle -3.91606e-014 -2.8625e-014
rhumerus -34.6441 -7.40822 -68.9315
rradius 37.318
rwrist 14.2642
rhand -24.8972 -0.10286
rfingers 7.12502
rthumb 1.61089 -30.0765
lclavicle -3.91606e-014 -2.8625e-014
lhumerus -32.0118 11.8126 78.5092
lradius 37.2464
lwrist -2.82021
lhand -17.4312 28.6049
lfingers 7.12502
lthumb 8.81923 58.4006
rfemur -11.9964 -3.6657 22.9463
rtibia 28.0626
rfoot -26.8078 -9.50289
rtoes 15.402
lfemur -29.9125 -8.82425 -15.9762
ltibia 30.8723
lfoot -12.0557 -10.2871
ltoes -14.3692
966
root -8.40704 17.739 9.07612 362.941 85.1591 -365.737
lowerback 2.92259 4.08288 1.04368
upperback 1.18371 5.49011 1.04371
thorax -0.423101 2.75053 0.309826
lowerneck -18.2921 6.72541 -4.80564
upperneck 36.5817 16.4013 -5.73341
head 16.5185 5.866 1.63172
rclavicle -1.70955e-014 -1.11319e-014
rhumerus -34.6069 -7.31468 -69.019
rradius 37.6416
rwrist 14.297
rhand -25.352 -0.90925
rfingers 7.12502
rthumb 1.17156 -30.8858
lclavicle -1.70955e-014 -1.11319e-014
lhumerus -32.172 12.6042 77.8748
lradius 36.2332
lwrist -2.6443
lhand -17.48 28.6596
lfingers 7.12502
lthumb 8.77217 58.4573
rfemur -11.8847 -3.74839 23.0451
rtibia 27.9328
rfoot -27.1273 -9.81762
rtoes 15.4484
lfemur -29.8691 -8.49412 -15.9448
ltibia 31.1769
lfoot -11.7718 -8.18029
ltoes -10.7623
967
root -8.40882 17.7408 9.07932 359.783 85.8173 -368.741
lowerback 3.10708 4.0684 1.16138
upperback 1.22029 5.47865 1.08944
thorax -0.481917 2.74538 0.279165
lowerneck -18.5134 6.62936 -4.84631
upperneck 36.7403 16.3078 -5.65276
head 16.6388 5.81417 1.673
rclavicle -3.39922e-014 -1.59028e-015
rhumerus -34.4891 -7.5793 -68.9624
rradius 37.839
rwrist 14.3061
rhand -25.174 -0.726129
rfingers 7.12502
rthumb 1.34352 -30.7016
lclavicle -3.39922e-014 -1.59028e-015
lhumerus -32.3045 13.4547 77.2272
lradius 35.216
lwrist -2.61237
lhand -17.2559 28.766
lfingers 7.12502
lthumb 8.98844 58.5545
rfemur -11.5656 -3.57294 23.3312
rtibia 27.7427
rfoot -27.6059 -10.3334
rtoes 15.7385
lfemur -29.7044 -8.12442 -15.7385
ltibia 31.4866
lfoot -11.6615 -6.46075
ltoes -7.39081
968
root -8.40615 17.7458 9.07891 356.091 86.473 -372.243
lowerback 3.27473 4.03727 1.26712
upperback 1.29082 5.44443 1.12321
thorax -0.49659 2.72925 0.246765
lowerneck -18.6613 6.5783 -4.79645
upperneck 36.8085 16.2504 -5.64722
head 16.7139 5.78765 1.66862
rclavicle -3.37934e-014 3.18055e-015
rhumerus -34.3143 -7.84434 -68.9079
rradius 37.9843
rwrist 14.0738
rhand -25.1483 -0.379916
rfingers 7.12502
rthumb 1.36834 -30.3553
lclavicle -3.37934e-014 3.18055e-015
lhumerus -32.4319 14.2814 76.5847
lradius 34.2108
lwrist -2.70172
lhand -16.9988 28.9011
lfingers 7.12502
lthumb 9.23649 58.6788
rfemur -11.1832 -3.27193 23.5549
rtibia 27.5072
rfoot -28.0907 -10.9835
rtoes 16.2933
lfemur -29.491 -7.59859 -15.6113
ltibia 31.7953
lfoot -11.6733 -5.21581
ltoes -5.4777
